<svg xmlns="http://www.w3.org/2000/svg" viewBox="0 0 106.42 112.64"><defs><style>.cls-1{fill:#f78e1e;}.cls-2{fill:#e34a25;}.cls-3{fill:#f15826;}.cls-4{fill:#f57f20;}.cls-5{font-size:27.6px;fill:#231f20;font-family:FuturaPT-Medium, Futura PT;letter-spacing:-0.05em;}.cls-6{letter-spacing:-0.07em;}.cls-7{letter-spacing:0.01em;}.cls-8{letter-spacing:-0.03em;}.cls-9{letter-spacing:-0.07em;}.cls-10{letter-spacing:-0.05em;}</style></defs><title>Asset 2</title><g id="Layer_2" data-name="Layer 2"><g id="Layer_1-2" data-name="Layer 1"><path class="cls-1" d="M41.43,35.9V81a22.45,22.45,0,0,1-5.78-.75A22.54,22.54,0,0,0,19.22,54.65,22.54,22.54,0,0,1,41.43,35.9Z"/><path class="cls-2" d="M70.37,4.77a36.05,36.05,0,0,1,2.29,72,36,36,0,0,0-.42-37.62,36.27,36.27,0,0,0-9.36-10,36,36,0,0,0-21.19-6.89c-.77,0-1.53,0-2.29.07.13-.24.28-.47.42-.71a36.22,36.22,0,0,1,9.35-10A35.66,35.66,0,0,1,57.89,7,35,35,0,0,1,61.7,5.81,36.3,36.3,0,0,1,70.37,4.77Z"/><path class="cls-3" d="M41.69,0A22.25,22.25,0,0,1,64,22.29a21.8,21.8,0,0,1-1.09,6.89,36,36,0,0,0-21.19-6.89c-.77,0-1.53,0-2.29.07a36.1,36.1,0,0,0-6.38,1,13.78,13.78,0,0,0-12.49-8.06A22.3,22.3,0,0,1,41.69,0Z"/><path class="cls-4" d="M20.49,15.28h0A13.78,13.78,0,0,1,33,23.34,35.7,35.7,0,0,0,20.5,29.18a36.08,36.08,0,0,0-9.35,10,13.78,13.78,0,0,1,9.34-23.9Z"/><text class="cls-5" transform="translate(0 105.19)">sp<tspan class="cls-6" x="21.75" y="0">o</tspan><tspan class="cls-7" x="34.42" y="0">r</tspan><tspan class="cls-8" x="43.83" y="0">t</tspan><tspan class="cls-9" x="49.66" y="0">s </tspan><tspan class="cls-10" x="62.1" y="0">t</tspan><tspan class="cls-9" x="67.38" y="0">u</tspan><tspan x="78.77" y="0">t</tspan><tspan class="cls-9" x="84.05" y="0">or</tspan></text><path class="cls-2" d="M36,76.43a22.54,22.54,0,0,1-.32,3.79A22.54,22.54,0,0,1,19.22,54.65,22.54,22.54,0,0,1,36,76.43Z"/><path class="cls-3" d="M46.9,76.43a22.54,22.54,0,0,0,.32,3.79,22.58,22.58,0,0,1-5.79.75V35.9A22.54,22.54,0,0,1,63.65,54.65,22.54,22.54,0,0,0,46.9,76.43Z"/><path class="cls-1" d="M64,58.43A22.55,22.55,0,0,1,47.22,80.22,22.54,22.54,0,0,1,63.65,54.65,22.42,22.42,0,0,1,64,58.43Z"/></g></g></svg>