<svg xmlns="http://www.w3.org/2000/svg" viewBox="0 0 172.11 87.23"><defs><style>.cls-1{fill:#f78e1e;}.cls-2{fill:#e34a25;}.cls-3{fill:#f15826;}.cls-4{fill:#f57f20;}.cls-5{font-size:30.31px;fill:#231f20;font-family:FuturaPT-Medium, Futura PT;letter-spacing:-0.05em;}.cls-6{letter-spacing:-0.07em;}.cls-7{letter-spacing:0.01em;}.cls-8{letter-spacing:-0.03em;}.cls-9{letter-spacing:-0.07em;}</style></defs><title>Asset 1</title><g id="Layer_2" data-name="Layer 2"><g id="Layer_1-2" data-name="Layer 1"><path class="cls-1" d="M34.71,35.9V81a22.45,22.45,0,0,1-5.78-.75A22.54,22.54,0,0,0,12.5,54.65,22.54,22.54,0,0,1,34.71,35.9Z"/><path class="cls-2" d="M63.65,4.77a36.05,36.05,0,0,1,2.29,72,36,36,0,0,0-.42-37.62,36.27,36.27,0,0,0-9.36-10A36,36,0,0,0,35,22.29c-.77,0-1.53,0-2.29.07.13-.24.27-.47.42-.71a36.22,36.22,0,0,1,9.35-10A35.66,35.66,0,0,1,51.17,7,35,35,0,0,1,55,5.81,36.3,36.3,0,0,1,63.65,4.77Z"/><path class="cls-3" d="M35,0A22.25,22.25,0,0,1,57.25,22.29a21.8,21.8,0,0,1-1.09,6.89A36,36,0,0,0,35,22.29c-.77,0-1.53,0-2.29.07a36.1,36.1,0,0,0-6.38,1,13.78,13.78,0,0,0-12.49-8.06A22.3,22.3,0,0,1,35,0Z"/><path class="cls-4" d="M13.77,15.28h0A13.78,13.78,0,0,1,26.3,23.34a35.7,35.7,0,0,0-12.52,5.84,36.08,36.08,0,0,0-9.35,10,13.78,13.78,0,0,1,9.34-23.9Z"/><text class="cls-5" transform="translate(107.45 56.67)">sp<tspan class="cls-6" x="23.89" y="0">o</tspan><tspan class="cls-7" x="37.8" y="0">r</tspan><tspan class="cls-8" x="48.14" y="0">t</tspan><tspan class="cls-6" x="54.53" y="0">s</tspan><tspan x="0" y="22.38">t</tspan><tspan class="cls-9" x="5.79" y="22.38">u</tspan><tspan x="18.31" y="22.38">t</tspan><tspan class="cls-6" x="24.1" y="22.38">or</tspan></text><path class="cls-2" d="M29.25,76.43a22.54,22.54,0,0,1-.32,3.79A22.54,22.54,0,0,1,12.5,54.65,22.54,22.54,0,0,1,29.25,76.43Z"/><path class="cls-3" d="M40.18,76.43a22.54,22.54,0,0,0,.32,3.79,22.58,22.58,0,0,1-5.79.75V35.9A22.54,22.54,0,0,1,56.93,54.65,22.54,22.54,0,0,0,40.18,76.43Z"/><path class="cls-1" d="M57.25,58.43A22.55,22.55,0,0,1,40.5,80.22,22.54,22.54,0,0,1,56.93,54.65,22.42,22.42,0,0,1,57.25,58.43Z"/></g></g></svg>